<mxfile host="65bd71144e" modified="2020-10-09T08:10:44.624Z" agent="5.0 (Windows NT 10.0; Win64; x64) AppleWebKit/537.36 (KHTML, like Gecko) Code/1.49.3 Chrome/83.0.4103.122 Electron/9.2.1 Safari/537.36" etag="Ylp1-QegQdd5EzFsUYB8" version="13.6.5">
    <diagram id="G49a-_IXb7gbsf8aT2xB" name="Page-1">
        <mxGraphModel dx="770" dy="480" grid="1" gridSize="10" guides="1" tooltips="1" connect="1" arrows="1" fold="1" page="1" pageScale="1" pageWidth="1169" pageHeight="827" background="#97D077" math="0" shadow="0">
            <root>
                <mxCell id="0"/>
                <mxCell id="1" parent="0"/>
                <mxCell id="3OdBw5yF_7nA5tiW5dvj-2" value="&lt;b&gt;&lt;font color=&quot;#000000&quot;&gt;Clone Repo Locally&lt;/font&gt;&lt;/b&gt;" style="whiteSpace=wrap;html=1;aspect=fixed;fillColor=#fff2cc;strokeColor=none;" parent="1" vertex="1">
                    <mxGeometry x="85" y="180" width="80" height="80" as="geometry"/>
                </mxCell>
                <mxCell id="3OdBw5yF_7nA5tiW5dvj-4" value="&lt;b&gt;&lt;font style=&quot;font-size: 24px&quot; color=&quot;#000000&quot;&gt;DONE&lt;/font&gt;&lt;/b&gt;" style="whiteSpace=wrap;html=1;aspect=fixed;fillColor=#f8cecc;strokeColor=none;" parent="1" vertex="1">
                    <mxGeometry x="990" y="40" width="110" height="110" as="geometry"/>
                </mxCell>
                <mxCell id="3OdBw5yF_7nA5tiW5dvj-7" value="&lt;b&gt;&lt;font color=&quot;#000000&quot;&gt;Clone Repo Locally&lt;/font&gt;&lt;/b&gt;" style="whiteSpace=wrap;html=1;aspect=fixed;fillColor=#fff2cc;strokeColor=none;" parent="1" vertex="1">
                    <mxGeometry x="85" y="290" width="80" height="80" as="geometry"/>
                </mxCell>
                <mxCell id="3OdBw5yF_7nA5tiW5dvj-9" value="&lt;b&gt;&lt;font style=&quot;font-size: 24px&quot; color=&quot;#000000&quot;&gt;TODO&lt;/font&gt;&lt;/b&gt;" style="whiteSpace=wrap;html=1;aspect=fixed;fontColor=#333333;strokeColor=none;fillColor=#FFE8E8;" parent="1" vertex="1">
                    <mxGeometry x="70" y="40" width="110" height="110" as="geometry"/>
                </mxCell>
                <mxCell id="3OdBw5yF_7nA5tiW5dvj-10" value="&lt;b&gt;&lt;font style=&quot;font-size: 24px&quot; color=&quot;#000000&quot;&gt;READY&lt;/font&gt;&lt;/b&gt;" style="whiteSpace=wrap;html=1;aspect=fixed;fillColor=#e1d5e7;strokeColor=none;" parent="1" vertex="1">
                    <mxGeometry x="300" y="40" width="110" height="110" as="geometry"/>
                </mxCell>
                <mxCell id="3OdBw5yF_7nA5tiW5dvj-11" value="&lt;b&gt;&lt;font style=&quot;font-size: 24px&quot; color=&quot;#000000&quot;&gt;WIP&lt;/font&gt;&lt;/b&gt;" style="whiteSpace=wrap;html=1;aspect=fixed;fillColor=#dae8fc;strokeColor=none;" parent="1" vertex="1">
                    <mxGeometry x="530" y="40" width="110" height="110" as="geometry"/>
                </mxCell>
                <mxCell id="3OdBw5yF_7nA5tiW5dvj-12" value="&lt;b&gt;&lt;font style=&quot;font-size: 24px&quot; color=&quot;#000000&quot;&gt;REVIEW&lt;/font&gt;&lt;/b&gt;" style="whiteSpace=wrap;html=1;aspect=fixed;fillColor=#fff2cc;strokeColor=none;" parent="1" vertex="1">
                    <mxGeometry x="760" y="40" width="110" height="110" as="geometry"/>
                </mxCell>
            </root>
        </mxGraphModel>
    </diagram>
</mxfile>